<svg width="336" height="50" viewBox="0 0 336 50" fill="none" xmlns="http://www.w3.org/2000/svg">
<path d="M39.25 44.2C36.65 44.2 34.3167 43.6 32.25 42.4C30.1833 41.1667 28.55 39.5 27.35 37.4C26.15 35.3 25.5333 32.9333 25.5 30.3V7.5C25.5 6.73333 25.7333 6.11667 26.2 5.65C26.7 5.18333 27.3167 4.95 28.05 4.95C28.8167 4.95 29.4333 5.18333 29.9 5.65C30.3667 6.11667 30.6 6.73333 30.6 7.5V21C31.7667 19.6 33.1667 18.5 34.8 17.7C36.4667 16.8667 38.2833 16.45 40.25 16.45C42.6833 16.45 44.8667 17.0667 46.8 18.3C48.7333 19.5 50.25 21.15 51.35 23.25C52.4833 25.3167 53.05 27.6667 53.05 30.3C53.05 32.9333 52.4333 35.3 51.2 37.4C50 39.5 48.3667 41.1667 46.3 42.4C44.2333 43.6 41.8833 44.2 39.25 44.2ZM39.25 39.7C40.95 39.7 42.4667 39.3 43.8 38.5C45.1333 37.6667 46.1833 36.5333 46.95 35.1C47.75 33.6667 48.15 32.0667 48.15 30.3C48.15 28.5 47.75 26.9 46.95 25.5C46.1833 24.1 45.1333 23 43.8 22.2C42.4667 21.3667 40.95 20.95 39.25 20.95C37.5833 20.95 36.0667 21.3667 34.7 22.2C33.3667 23 32.3167 24.1 31.55 25.5C30.7833 26.9 30.4 28.5 30.4 30.3C30.4 32.0667 30.7833 33.6667 31.55 35.1C32.3167 36.5333 33.3667 37.6667 34.7 38.5C36.0667 39.3 37.5833 39.7 39.25 39.7ZM73.0563 44.2C70.3563 44.2 67.9729 43.6167 65.9063 42.45C63.8396 41.25 62.2063 39.6167 61.0063 37.55C59.8396 35.45 59.2563 33.05 59.2563 30.35C59.2563 27.6167 59.8396 25.2167 61.0063 23.15C62.2063 21.05 63.8396 19.4167 65.9063 18.25C67.9729 17.05 70.3563 16.45 73.0563 16.45C75.7229 16.45 78.0896 17.05 80.1563 18.25C82.2229 19.4167 83.8396 21.05 85.0063 23.15C86.2063 25.2167 86.8063 27.6167 86.8063 30.35C86.8063 33.05 86.2229 35.45 85.0563 37.55C83.8896 39.6167 82.2729 41.25 80.2063 42.45C78.1396 43.6167 75.7563 44.2 73.0563 44.2ZM73.0563 39.7C74.7896 39.7 76.3229 39.3 77.6563 38.5C78.9896 37.7 80.0229 36.6 80.7563 35.2C81.5229 33.8 81.9063 32.1833 81.9063 30.35C81.9063 28.5167 81.5229 26.9 80.7563 25.5C80.0229 24.0667 78.9896 22.95 77.6563 22.15C76.3229 21.35 74.7896 20.95 73.0563 20.95C71.3229 20.95 69.7896 21.35 68.4563 22.15C67.1229 22.95 66.0729 24.0667 65.3063 25.5C64.5396 26.9 64.1563 28.5167 64.1563 30.35C64.1563 32.1833 64.5396 33.8 65.3063 35.2C66.0729 36.6 67.1229 37.7 68.4563 38.5C69.7896 39.3 71.3229 39.7 73.0563 39.7ZM106.796 44.2C104.096 44.2 101.713 43.6167 99.6465 42.45C97.5798 41.25 95.9465 39.6167 94.7465 37.55C93.5798 35.45 92.9965 33.05 92.9965 30.35C92.9965 27.6167 93.5798 25.2167 94.7465 23.15C95.9465 21.05 97.5798 19.4167 99.6465 18.25C101.713 17.05 104.096 16.45 106.796 16.45C109.463 16.45 111.83 17.05 113.896 18.25C115.963 19.4167 117.58 21.05 118.746 23.15C119.946 25.2167 120.546 27.6167 120.546 30.35C120.546 33.05 119.963 35.45 118.796 37.55C117.63 39.6167 116.013 41.25 113.946 42.45C111.88 43.6167 109.496 44.2 106.796 44.2ZM106.796 39.7C108.53 39.7 110.063 39.3 111.396 38.5C112.73 37.7 113.763 36.6 114.496 35.2C115.263 33.8 115.646 32.1833 115.646 30.35C115.646 28.5167 115.263 26.9 114.496 25.5C113.763 24.0667 112.73 22.95 111.396 22.15C110.063 21.35 108.53 20.95 106.796 20.95C105.063 20.95 103.53 21.35 102.196 22.15C100.863 22.95 99.8132 24.0667 99.0465 25.5C98.2798 26.9 97.8965 28.5167 97.8965 30.35C97.8965 32.1833 98.2798 33.8 99.0465 35.2C99.8132 36.6 100.863 37.7 102.196 38.5C103.53 39.3 105.063 39.7 106.796 39.7ZM130.687 44.05C129.953 44.05 129.337 43.8167 128.837 43.35C128.37 42.85 128.137 42.2333 128.137 41.5V19.25C128.137 18.4833 128.37 17.8667 128.837 17.4C129.337 16.9333 129.953 16.7 130.687 16.7C131.453 16.7 132.07 16.9333 132.537 17.4C133.003 17.8667 133.237 18.45 133.237 19.15C134.103 18.2833 135.137 17.6167 136.337 17.15C137.537 16.65 138.837 16.4 140.237 16.4C143.737 16.4 146.37 17.7167 148.137 20.35C149.103 19.1167 150.337 18.15 151.837 17.45C153.337 16.75 155.02 16.4 156.887 16.4C159.753 16.4 162.087 17.3333 163.887 19.2C165.687 21.0667 166.587 23.7333 166.587 27.2V41.5C166.587 42.2333 166.353 42.85 165.887 43.35C165.42 43.8167 164.803 44.05 164.037 44.05C163.303 44.05 162.687 43.8167 162.187 43.35C161.72 42.85 161.487 42.2333 161.487 41.5V27.2C161.487 25.1 160.97 23.55 159.937 22.55C158.903 21.5167 157.553 21 155.887 21C154.153 21 152.72 21.6 151.587 22.8C150.487 24 149.937 25.5333 149.937 27.4V41.5C149.937 42.2333 149.703 42.85 149.237 43.35C148.77 43.8167 148.153 44.05 147.387 44.05C146.653 44.05 146.037 43.8167 145.537 43.35C145.07 42.85 144.837 42.2333 144.837 41.5V27.2C144.837 25.1 144.32 23.55 143.287 22.55C142.253 21.5167 140.903 21 139.237 21C137.503 21 136.07 21.6 134.937 22.8C133.803 24 133.237 25.5333 133.237 27.4V41.5C133.237 42.2333 133.003 42.85 132.537 43.35C132.07 43.8167 131.453 44.05 130.687 44.05Z" fill="#3971F6"/>
<path d="M187.561 44.3C184.894 44.3 182.494 43.7 180.361 42.5C178.261 41.2667 176.594 39.6 175.361 37.5C174.161 35.3667 173.561 32.9833 173.561 30.35C173.561 27.6833 174.161 25.3 175.361 23.2C176.594 21.0667 178.261 19.4 180.361 18.2C182.494 16.9667 184.894 16.35 187.561 16.35C190.227 16.35 192.611 16.9667 194.711 18.2C196.811 19.4 198.461 21.0667 199.661 23.2C200.894 25.3 201.511 27.6833 201.511 30.35V42.5C201.511 42.9333 201.377 43.3 201.111 43.6C200.844 43.8667 200.477 44 200.011 44C199.577 44 199.211 43.8667 198.911 43.6C198.644 43.3 198.511 42.9333 198.511 42.5V38.6C197.411 40.3333 195.911 41.7167 194.011 42.75C192.111 43.7833 189.961 44.3 187.561 44.3ZM187.561 41.5C189.661 41.5 191.527 41.0167 193.161 40.05C194.827 39.05 196.127 37.7167 197.061 36.05C198.027 34.35 198.511 32.45 198.511 30.35C198.511 28.2167 198.027 26.3167 197.061 24.65C196.127 22.95 194.827 21.6167 193.161 20.65C191.527 19.65 189.661 19.15 187.561 19.15C185.494 19.15 183.627 19.65 181.961 20.65C180.294 21.6167 178.977 22.95 178.011 24.65C177.044 26.3167 176.561 28.2167 176.561 30.35C176.561 32.45 177.044 34.35 178.011 36.05C178.977 37.7167 180.294 39.05 181.961 40.05C183.627 41.0167 185.494 41.5 187.561 41.5ZM221.496 44.3C218.829 44.3 216.429 43.7 214.296 42.5C212.196 41.2667 210.529 39.6 209.296 37.5C208.096 35.3667 207.496 32.9667 207.496 30.3C207.496 27.6333 208.096 25.25 209.296 23.15C210.529 21.05 212.196 19.4 214.296 18.2C216.429 16.9667 218.829 16.35 221.496 16.35C223.896 16.35 226.046 16.8667 227.946 17.9C229.879 18.9333 231.379 20.3167 232.446 22.05V6.45C232.446 5.98333 232.579 5.61666 232.846 5.35C233.146 5.08333 233.513 4.95 233.946 4.95C234.413 4.95 234.779 5.08333 235.046 5.35C235.313 5.61666 235.446 5.98333 235.446 6.45V30.6C235.413 33.2 234.779 35.5333 233.546 37.6C232.313 39.6667 230.646 41.3 228.546 42.5C226.479 43.7 224.129 44.3 221.496 44.3ZM221.496 41.5C223.596 41.5 225.463 41.0167 227.096 40.05C228.763 39.05 230.063 37.7167 230.996 36.05C231.963 34.35 232.446 32.4333 232.446 30.3C232.446 28.1667 231.963 26.2667 230.996 24.6C230.063 22.9333 228.763 21.6167 227.096 20.65C225.463 19.65 223.596 19.15 221.496 19.15C219.429 19.15 217.563 19.65 215.896 20.65C214.229 21.6167 212.913 22.9333 211.946 24.6C210.979 26.2667 210.496 28.1667 210.496 30.3C210.496 32.4333 210.979 34.35 211.946 36.05C212.913 37.7167 214.229 39.05 215.896 40.05C217.563 41.0167 219.429 41.5 221.496 41.5ZM245.945 44C245.512 44 245.145 43.8667 244.845 43.6C244.579 43.3 244.445 42.9333 244.445 42.5V18.15C244.445 17.6833 244.579 17.3167 244.845 17.05C245.145 16.7833 245.512 16.65 245.945 16.65C246.412 16.65 246.779 16.7833 247.045 17.05C247.312 17.3167 247.445 17.6833 247.445 18.15V20.1C248.379 18.9 249.512 17.9667 250.845 17.3C252.212 16.6333 253.695 16.3 255.295 16.3C257.262 16.3 259.012 16.7833 260.545 17.75C262.079 18.6833 263.279 19.9833 264.145 21.65C265.045 19.9833 266.295 18.6833 267.895 17.75C269.495 16.7833 271.295 16.3 273.295 16.3C275.329 16.3 277.112 16.8 278.645 17.8C280.179 18.8 281.379 20.1833 282.245 21.95C283.145 23.7167 283.595 25.75 283.595 28.05V42.5C283.595 42.9333 283.462 43.3 283.195 43.6C282.929 43.8667 282.562 44 282.095 44C281.662 44 281.295 43.8667 280.995 43.6C280.729 43.3 280.595 42.9333 280.595 42.5V28.05C280.595 25.4833 279.912 23.3833 278.545 21.75C277.212 20.1167 275.462 19.3 273.295 19.3C270.995 19.3 269.112 20.0667 267.645 21.6C266.212 23.1 265.529 25.1333 265.595 27.7C265.595 27.8 265.595 27.9167 265.595 28.05V42.5C265.595 42.9333 265.462 43.3 265.195 43.6C264.929 43.8667 264.562 44 264.095 44C263.662 44 263.295 43.8667 262.995 43.6C262.729 43.3 262.595 42.9333 262.595 42.5V28.05C262.595 25.4833 261.912 23.3833 260.545 21.75C259.212 20.1167 257.462 19.3 255.295 19.3C252.995 19.3 251.112 20.0333 249.645 21.5C248.179 22.9667 247.445 24.8667 247.445 27.2V42.5C247.445 42.9333 247.312 43.3 247.045 43.6C246.779 43.8667 246.412 44 245.945 44ZM294.602 44C294.168 44 293.802 43.8667 293.502 43.6C293.235 43.3 293.102 42.9333 293.102 42.5V18.15C293.102 17.6833 293.235 17.3167 293.502 17.05C293.802 16.7833 294.168 16.65 294.602 16.65C295.068 16.65 295.435 16.7833 295.702 17.05C295.968 17.3167 296.102 17.6833 296.102 18.15V42.5C296.102 42.9333 295.968 43.3 295.702 43.6C295.435 43.8667 295.068 44 294.602 44ZM294.552 10.9C293.918 10.9 293.368 10.6833 292.902 10.25C292.468 9.78333 292.252 9.21667 292.252 8.55C292.252 7.78333 292.485 7.21666 292.952 6.85C293.452 6.45 294.002 6.25 294.602 6.25C295.168 6.25 295.685 6.45 296.152 6.85C296.652 7.21666 296.902 7.78333 296.902 8.55C296.902 9.21667 296.668 9.78333 296.202 10.25C295.768 10.6833 295.218 10.9 294.552 10.9ZM307.615 44C307.182 44 306.815 43.8667 306.515 43.6C306.249 43.3 306.115 42.9333 306.115 42.5V18.15C306.115 17.6833 306.249 17.3167 306.515 17.05C306.815 16.7833 307.182 16.65 307.615 16.65C308.082 16.65 308.449 16.7833 308.715 17.05C308.982 17.3167 309.115 17.6833 309.115 18.15V20.75C310.215 19.3833 311.582 18.3 313.215 17.5C314.882 16.7 316.682 16.3 318.615 16.3C321.015 16.3 323.165 16.8 325.065 17.8C326.999 18.7667 328.515 20.2 329.615 22.1C330.715 23.9667 331.265 26.2833 331.265 29.05V42.5C331.265 42.9333 331.115 43.3 330.815 43.6C330.549 43.8667 330.199 44 329.765 44C329.332 44 328.965 43.8667 328.665 43.6C328.399 43.3 328.265 42.9333 328.265 42.5V29.05C328.265 26.85 327.832 25.0333 326.965 23.6C326.132 22.1667 324.982 21.1 323.515 20.4C322.082 19.6667 320.449 19.3 318.615 19.3C316.815 19.3 315.199 19.65 313.765 20.35C312.332 21.0167 311.199 21.95 310.365 23.15C309.532 24.35 309.115 25.7 309.115 27.2V42.5C309.115 42.9333 308.982 43.3 308.715 43.6C308.449 43.8667 308.082 44 307.615 44Z" fill="#70808F"/>
<path opacity="0.8" d="M6 7L14.8388 15.8388L23.6777 24.6777" stroke="#3971F6" stroke-width="4" stroke-linecap="round" stroke-linejoin="round"/>
<path opacity="0.8" d="M6 42.6777L14.8388 33.8388L23.6777 25" stroke="#3971F6" stroke-width="4" stroke-linecap="round" stroke-linejoin="round"/>
<path opacity="0.8" d="M2 25H13H24" stroke="#3971F6" stroke-width="3" stroke-linecap="round" stroke-linejoin="round"/>
<path opacity="0.8" d="M6 32.6537L15.2388 28.8268L24.4776 25" stroke="#3971F6" stroke-width="3" stroke-linecap="round" stroke-linejoin="round"/>
<path opacity="0.8" d="M6 17L15.2388 20.8268L24.4776 24.6537" stroke="#3971F6" stroke-width="3" stroke-linecap="round" stroke-linejoin="round"/>
</svg>
